[url=http://www.imdb.com/title/tt0452637/]IMDB Rating Click Here[/url]
[color=red]StoryLine[/color]
[color=green]Apartment building superintendent Cleveland Heep rescues what he thinks is a young woman from
 the pool he maintains. When he discovers that she is actually a character from a bedtime story who is trying
 to make the journey back to her home, he works with his tenants to protect his new friend from the creatures
 that are determined to keep her in our world[/color]
C:\My Rips\Lady In The Water 2006 BRRip 1080p ^^Dual Audio Eng Hindi ^^TAKRIAN^^\Lady In The Water 2006 BRRip 1080p ^^Dual Audio Eng Hindi ^^TAKRIAN^^.mkv
   General
      Unique ID : 229672474385461100820422433917349037594 (0xACC94F40C4DF4592BB1A8CF6587A861A)
      Complete name : C:\My Rips\Lady In The Water 2006 BRRip 1080p ^^Dual Audio Eng Hindi ^^TAKRIAN^^\Lady In The Water 2006 BRRip 1080p ^^Dual Audio Eng Hindi ^^TAKRIAN^^.mkv
      Format : Matroska
      File size : 2.99 GiB
      Duration : 1h 45mn
      Overall bit rate : 4 068 Kbps
      Movie name : Lady in the Water ^^TAKRIAN^^^DIRTYHD^^
      Encoded date : UTC 2012-01-02 11:49:34
      Writing application : mkvmerge v4.4.0 ('Die Wiederkehr') built on Oct 31 2010 21:52:48
      Writing library : libebml v1.0.0 + libmatroska v1.0.0
   Video #1
      ID : 1
      Format : AVC
      Format/Info : Advanced Video Codec
      Format profile : High@L4.0
      Format settings, CABAC : Yes
      Format settings, ReFrames : 3 frames
      Muxing mode : Header stripping
      Codec ID : V_MPEG4/ISO/AVC
      Duration : 1h 45mn
      Bit rate mode : Variable
      Bit rate : 3 396 Kbps
      Maximum bit rate : 25.0 Mbps
      Width : 1 920 pixels
      Height : 1 080 pixels
      Display aspect ratio : 16:9
      Frame rate : 25.000 fps
      Original frame rate : 23.976 fps
      Color space : YUV
      Chroma subsampling : 4:2:0
      Bit depth : 8 bits
      Scan type : Progressive
      Bits/(Pixel*Frame) : 0.066
      Stream size : 2.55 GiB (85%)
      Title : ^^TAKRIAN^^^DIRTYHD^^
      Writing library : x264 core 114 r1924 08d04a4
      Encoding settings : cabac=1 / ref=3 / deblock=1:0:0 / analyse=0x3:0x133 / me=umh / subme=7 / psy=1 / psy_rd=1.00:0.00 / mixed_ref=1 / me_range=16 / chroma_me=1 / trellis=1 / 8x8dct=1 / cqm=0 / deadzone=21,11 / fast_pskip=1 / chroma_qp_offset=-2 / threads=3 / sliced_threads=0 / nr=0 / decimate=1 / interlaced=0 / constrained_intra=0 / bframes=3 / b_pyramid=0 / b_adapt=1 / b_bias=0 / direct=1 / weightb=1 / open_gop=0 / weightp=2 / keyint=240 / keyint_min=24 / scenecut=40 / intra_refresh=0 / rc_lookahead=40 / rc=2pass / mbtree=1 / bitrate=3396 / ratetol=1.0 / qcomp=0.60 / qpmin=0 / qpmax=69 / qpstep=4 / cplxblur=20.0 / qblur=0.5 / vbv_maxrate=25000 / vbv_bufsize=25000 / nal_hrd=vbr / ip_ratio=1.40 / aq=1:1.00
   Audio #2
      ID : 2
      Format : AC-3
      Format/Info : Audio Coding 3
      Mode extension : CM (complete main)
      Muxing mode : Header stripping
      Codec ID : A_AC3
      Duration : 1h 45mn
      Bit rate mode : Constant
      Bit rate : 384 Kbps
      Channel(s) : 6 channels
      Channel positions : Front: L C R, Side: L R, LFE
      Sampling rate : 48.0 KHz
      Bit depth : 16 bits
      Compression mode : Lossy
      Stream size : 289 MiB (9%)
      Title : ^^TAKRIAN^^^ENGLISH^^
      Language : English
   Audio #3
      ID : 3
      Format : MPEG Audio
      Format version : Version 1
      Format profile : Layer 3
      Mode : Joint stereo
      Muxing mode : Header stripping
      Codec ID : A_MPEG/L3
      Codec ID/Hint : MP3
      Duration : 1h 45mn
      Bit rate mode : Constant
      Bit rate : 128 Kbps
      Channel(s) : 2 channels
      Sampling rate : 48.0 KHz
      Compression mode : Lossy
      Delay relative to video : 538ms
      Stream size : 96.3 MiB (3%)
      Title : ^^TAKRIAN^^^HINDI^^
   Text #4
      ID : 4
      Format : UTF-8
      Codec ID : S_TEXT/UTF8
      Codec ID/Info : UTF-8 Plain Text 
http://imagestorage.org/images/24739455176911246325.png 
http://imagestorage.org/images/54959807950511305977.png 
http://imagestorage.org/images/57642100311841139009.png 
http://imagestorage.org/images/66643692429805557184.png 
http://imagestorage.org/images/88735860166767430385.png